<svg width="324" height="324" viewBox="0 0 324 324" fill="none" xmlns="http://www.w3.org/2000/svg">
<rect width="324" height="324" rx="80" fill="#0055FF"/>
<path d="M221.512 251.464C221.512 267.256 216.528 279.296 206.56 287.584C196.592 295.872 182.424 300.016 164.056 300.016C145.688 300.016 131.464 295.872 121.384 287.584C111.416 279.296 106.432 267.256 106.432 251.464V182.416H143.56V250.96C143.56 257.456 145.296 262.664 148.768 266.584C152.24 270.392 157.28 272.296 163.888 272.296C170.496 272.296 175.536 270.336 179.008 266.416C182.592 262.496 184.384 257.344 184.384 250.96V182.416H221.512V251.464Z" fill="#FD4EFF"/>
<circle cx="106.053" cy="101.053" r="17.0526" fill="#1FEB71"/>
<circle cx="217.053" cy="101.053" r="17.0526" fill="#1FEB71"/>
<circle cx="162.053" cy="135.053" r="17.0526" fill="#FECC19"/>
</svg>
